<svg width="85" height="52" viewBox="0 0 85 52" fill="none" xmlns="http://www.w3.org/2000/svg">
<path d="M75.4935 35.7989C74.9795 35.7359 74.5025 35.5881 73.9396 35.7196C72.8094 35.9836 72.1802 36.916 71.2087 37.3431C69.4766 38.1048 68.6746 37.254 67.1207 37.5724C66.7653 37.6452 66.4697 37.8386 66.1709 38.0559C66.1981 38.9362 66.8272 40.3858 67.1587 40.6433C67.9291 41.241 69.0549 40.6379 69.5516 41.4496C70.259 42.6091 68.7833 44.3076 69.8058 45.6714C70.397 46.4603 71.4272 46.8417 72.4378 46.8417C75.261 46.8417 77.1561 44.476 77.6104 41.956C78.0711 39.386 76.0499 37.8571 75.4935 35.7989ZM72.7236 45.5736C75.5707 45.0487 76.5237 41.7811 76.0184 39.6371C78.2482 40.7781 76.4444 46.3864 72.7236 45.5736Z" fill="white"/>
<path d="M54.5188 42.3124C53.4549 42.0255 52.5421 42.3048 51.5 42.2113C50.0504 42.082 49.6059 41.3202 48.4812 40.9562C47.8314 40.7465 47.312 40.8084 46.7328 40.778C46.1851 41.5789 46.1318 43.1296 46.573 43.7511C47.4467 44.9867 48.3791 44.3521 47.1261 46.1473C46.2557 47.3937 45.4309 48.4152 46.3274 49.8496C47.0088 50.9395 48.4443 51.6057 49.7266 51.6057C51.7326 51.6057 53.6766 50.4755 54.772 48.8368C56.038 46.9427 55.2252 44.8856 55.813 42.9372C55.411 42.6829 55.0013 42.4428 54.5188 42.3124ZM50.6535 49.9832C53.5006 49.4595 54.0624 46.6765 54.1167 44.3162C55.9152 45.8365 54.3743 50.7961 50.6535 49.9832Z" fill="white"/>
<path d="M81.3424 8.19821C82.2204 6.83769 83.4875 4.88276 84.785 2.90283C84.0732 2.7746 83.3756 2.66267 82.6866 2.5627C81.1783 5.06641 80.2764 6.58124 80.2764 6.58124C80.2764 6.58124 80.6274 7.11154 81.3424 8.19821Z" fill="white"/>
<path d="M14.3147 34.5688C11.0698 34.5688 7.56966 34.2808 3.76085 33.6407L3.49896 33.5973L6.04396 28.4725L0.685547 20.0866L1.14087 20.1811C22.1051 24.5083 31.3451 18.2305 41.1263 11.5844C50.9749 4.89156 61.157 -2.02623 83.9599 0.552454L84.2642 0.587226L84.1055 0.849116C83.698 1.52394 83.3177 2.15313 82.971 2.73016C81.6953 4.84809 80.8542 6.2586 80.6249 6.6422L81.6225 8.15703C82.3114 9.20568 83.3383 10.7705 84.7217 12.8852L84.9999 13.3101L84.5087 13.1829C83.5904 12.9449 82.6602 12.7352 81.7453 12.5559C67.1903 9.72402 58.035 15.7562 48.3429 22.1426C39.0431 28.2693 29.4825 34.5688 14.3147 34.5688ZM4.08576 33.2973C25.3901 36.7964 36.9469 29.1799 48.1267 21.8144C57.8894 15.3824 67.1088 9.30891 81.8202 12.1701C82.5809 12.319 83.3514 12.4896 84.1175 12.6787C82.8732 10.777 81.9354 9.3502 81.2943 8.37219L80.162 6.65307L80.225 6.54766C80.225 6.54766 81.1269 5.03283 82.6363 2.52804C82.9373 2.02599 83.2634 1.48482 83.6122 0.908885C61.1657 -1.56005 51.0922 5.2882 41.3491 11.9093C31.569 18.5555 22.3278 24.8365 1.51686 20.6582L6.49493 28.4486L4.08576 33.2973Z" fill="white"/>
<path d="M8.46533 29.4145L10.4453 29.3308C10.4822 29.6296 10.5659 29.8578 10.6941 30.0165C10.9017 30.274 11.2059 30.4033 11.6037 30.4109C11.9003 30.4164 12.1296 30.3555 12.2937 30.2284C12.4567 30.1012 12.5382 29.9534 12.5415 29.7818C12.5447 29.6198 12.473 29.4742 12.3209 29.3427C12.1698 29.2123 11.8177 29.0852 11.2624 28.9635C10.3551 28.7581 9.70958 28.4962 9.32707 28.1735C8.94238 27.8507 8.75221 27.4476 8.76199 26.9575C8.76851 26.6347 8.87392 26.3337 9.0793 26.0512C9.28577 25.7687 9.59113 25.5502 9.99538 25.3916C10.4018 25.2362 10.9538 25.1634 11.6547 25.1742C12.5143 25.1884 13.1685 25.3481 13.6129 25.6513C14.0585 25.9556 14.3171 26.4326 14.391 27.0824L12.4295 27.1574C12.3828 26.8749 12.2774 26.6684 12.1122 26.5369C11.9492 26.4076 11.7188 26.3402 11.4265 26.3359C11.1842 26.3316 11.0016 26.3761 10.8778 26.4696C10.7539 26.5619 10.6908 26.6771 10.6876 26.814C10.6843 26.9129 10.7343 27.002 10.8332 27.0835C10.9299 27.1683 11.1603 27.2476 11.5265 27.3248C12.4317 27.5215 13.0783 27.7171 13.4684 27.9094C13.8574 28.1018 14.1411 28.3354 14.3138 28.6157C14.4877 28.8939 14.5725 29.2036 14.5659 29.5459C14.5583 29.9458 14.4312 30.3131 14.1867 30.6468C13.9411 30.9814 13.6042 31.2336 13.1717 31.4009C12.7414 31.5683 12.1981 31.6465 11.5482 31.6367C10.4051 31.6172 9.61504 31.402 9.18363 30.9836C8.75113 30.5707 8.51206 30.0469 8.46533 29.4145ZM19.5734 30.0697L17.2174 30.299L17.0099 31.3574L14.8963 31.5639L16.7078 25.1014L18.9626 24.8808L22.1814 30.851L20.0178 31.0629L19.5734 30.0697ZM18.9887 28.7668L17.9955 26.6043L17.5119 28.9113L18.9887 28.7668ZM18.5704 23.3638L19.293 23.2932C19.3039 23.366 19.3126 23.4301 19.3191 23.4845C19.3549 23.7985 19.2973 24.0495 19.1463 24.2386C18.9942 24.4266 18.7855 24.5353 18.5182 24.5624C18.3237 24.5809 18.0194 24.5353 17.6065 24.4233C17.3565 24.3571 17.1859 24.3266 17.0936 24.3364C17.0045 24.344 16.9393 24.3766 16.8958 24.4331C16.8534 24.4885 16.8371 24.582 16.8491 24.7124L16.1373 24.7819C16.1264 24.7146 16.1177 24.6559 16.1123 24.6037C16.0775 24.3016 16.1416 24.0528 16.3003 23.8572C16.4579 23.6616 16.6621 23.5507 16.9077 23.5257C17.0153 23.516 17.1164 23.5171 17.2142 23.5312C17.3098 23.5453 17.4913 23.5877 17.7564 23.6616C18.0216 23.7366 18.2128 23.767 18.328 23.7561C18.4106 23.7485 18.4736 23.7159 18.5193 23.6583C18.5628 23.6007 18.5801 23.5029 18.5704 23.3638ZM21.6478 27.7475C21.3631 26.7619 21.4381 25.9208 21.8706 25.2253C22.3031 24.5287 23.0475 24.0495 24.1026 23.7876C25.1839 23.5181 26.0956 23.5801 26.8367 23.9745C27.5757 24.3668 28.0875 25.0504 28.3679 26.0218C28.5711 26.7282 28.6091 27.3389 28.4841 27.854C28.3581 28.3691 28.0907 28.8124 27.6811 29.1841C27.2692 29.5557 26.7041 29.8317 25.9826 30.01C25.2502 30.1925 24.6123 30.236 24.0679 30.1393C23.5267 30.0404 23.0377 29.7948 22.6041 29.4003C22.1694 29.0037 21.85 28.4527 21.6478 27.7475ZM23.6582 27.2563C23.8342 27.867 24.0809 28.2734 24.4015 28.4799C24.722 28.6853 25.0937 28.7353 25.5121 28.631C25.9435 28.5234 26.239 28.3093 26.401 27.9909C26.5618 27.6714 26.5466 27.1737 26.3521 26.4978C26.188 25.9284 25.9435 25.5448 25.6207 25.3427C25.2991 25.1427 24.9274 25.0949 24.5036 25.2014C24.0983 25.3014 23.8114 25.5155 23.6441 25.8425C23.4767 26.1707 23.4811 26.6423 23.6582 27.2563ZM35.2128 24.1615L34.5782 23.0031L37.4394 21.648L38.7413 24.0234C38.3849 24.6276 38.0306 25.0938 37.6774 25.4187C37.3243 25.7437 36.8592 26.0425 36.281 26.3163C35.5693 26.6532 34.9281 26.8151 34.3565 26.801C33.7839 26.789 33.2525 26.6173 32.7613 26.2881C32.2701 25.9599 31.8648 25.5078 31.5486 24.9297C31.216 24.3223 31.0606 23.729 31.0824 23.1508C31.1074 22.5738 31.3149 22.0468 31.7083 21.5665C32.0158 21.1937 32.5135 20.846 33.2003 20.5211C33.861 20.207 34.3881 20.0288 34.7793 19.9843C35.1672 19.9408 35.5345 19.9843 35.8811 20.1157C36.2256 20.2462 36.5516 20.4667 36.8592 20.7754L35.2346 21.9164C35.0455 21.7425 34.8325 21.6404 34.5945 21.6121C34.3587 21.5839 34.1033 21.6338 33.8306 21.7632C33.4253 21.9555 33.1731 22.2391 33.0753 22.6162C32.9775 22.9933 33.0829 23.4649 33.3948 24.0321C33.7252 24.6352 34.0838 25.008 34.4706 25.1503C34.8542 25.2927 35.2661 25.2623 35.7029 25.0547C35.9105 24.958 36.092 24.8341 36.2484 24.6907C36.4071 24.545 36.5712 24.3484 36.7396 24.0995L36.4506 23.5746L35.2128 24.1615ZM36.4908 18.9889L41.1624 16.17L41.9448 17.2882L39.0206 19.053L39.603 19.8865L42.3154 18.2499L43.0641 19.3192L40.3507 20.9557L41.0733 21.9881L44.0823 20.1712L44.9125 21.3589L40.1551 24.2299L36.4908 18.9889ZM45.8047 20.5885L41.6623 15.6625L44.3931 13.6804C44.8995 13.3121 45.3211 13.0719 45.6558 12.9589C45.9905 12.8459 46.3328 12.8372 46.6806 12.9371C47.0283 13.0349 47.3326 13.2425 47.5966 13.5566C47.8281 13.8304 47.9618 14.1108 48.0041 14.3998C48.0443 14.69 48.0074 14.9758 47.8933 15.2583C47.8183 15.4376 47.6814 15.6419 47.4804 15.869C47.727 15.7886 47.9194 15.7462 48.0617 15.7419C48.1541 15.7386 48.3149 15.7614 48.541 15.8103C48.7659 15.8603 48.9289 15.906 49.0278 15.9505L51.0208 16.8025L49.1691 18.1456L47.0283 17.2752C46.7545 17.1622 46.548 17.1056 46.4111 17.1122C46.2307 17.1209 46.0644 17.1806 45.9145 17.2893L45.7699 17.3947L47.451 19.3942L45.8047 20.5885ZM44.9864 16.4645L45.6776 15.9625C45.7514 15.9081 45.8775 15.7832 46.0546 15.581C46.1459 15.4811 46.1916 15.3648 46.1916 15.2333C46.1894 15.1018 46.1437 14.9801 46.0536 14.8736C45.9199 14.7139 45.7634 14.6313 45.583 14.6248C45.4026 14.6182 45.1625 14.7226 44.8647 14.9399L44.1453 15.4615L44.9864 16.4645ZM54.459 13.5555L52.4508 14.7215L52.7627 15.7571L50.9621 16.8036L49.5407 10.2585L51.463 9.14247L57.1735 13.1969L55.3284 14.2683L54.459 13.5555ZM53.318 12.6231L51.4065 11.0833L52.0607 13.3533L53.318 12.6231ZM55.1404 7.22231L57.0562 6.46815L59.0372 10.804L62.0234 9.62713L62.6699 11.0452L57.769 12.9774L55.1404 7.22231ZM62.1201 4.6284L65.1291 3.98292C65.7213 3.85469 66.219 3.82752 66.6233 3.89816C67.0254 3.96988 67.3796 4.11875 67.6882 4.34804C67.9947 4.57625 68.249 4.8653 68.4489 5.21413C68.6489 5.56186 68.7988 5.94328 68.9031 6.35948C69.064 7.0104 69.1107 7.53201 69.0401 7.92648C68.9705 8.31877 68.8238 8.6665 68.6 8.9686C68.3772 9.27178 68.1142 9.49781 67.8089 9.64995C67.3916 9.85533 67.0036 9.99768 66.6428 10.0748L63.6327 10.7203L62.1201 4.6284ZM64.488 5.57382L65.3149 8.90014L65.8105 8.79473C66.2353 8.70345 66.5255 8.59587 66.682 8.4709C66.8395 8.34485 66.9406 8.16229 66.9895 7.9243C67.0362 7.68523 66.9993 7.3212 66.8776 6.83328C66.7167 6.18779 66.4951 5.77159 66.2093 5.58142C65.9235 5.39234 65.517 5.35322 64.9922 5.46623L64.488 5.57382ZM70.4256 6.08129C70.4049 5.06199 70.6983 4.26219 71.2982 3.68517C71.8991 3.10597 72.7467 2.80822 73.8377 2.79083C74.957 2.77236 75.8253 3.03751 76.4425 3.58737C77.0576 4.13505 77.3749 4.91203 77.3944 5.91829C77.4086 6.64963 77.2858 7.25056 77.0304 7.72109C76.774 8.19162 76.398 8.56327 75.9035 8.83059C75.408 9.10009 74.7886 9.23918 74.041 9.25222C73.2835 9.26309 72.6533 9.16312 72.1512 8.94578C71.6503 8.72844 71.2417 8.37962 70.9222 7.89822C70.606 7.41682 70.4386 6.81154 70.4256 6.08129ZM72.5044 6.05739C72.5163 6.68875 72.6511 7.13863 72.9086 7.41139C73.1651 7.68197 73.5128 7.81455 73.9464 7.80803C74.393 7.80151 74.7364 7.66024 74.9766 7.3864C75.2146 7.11255 75.3287 6.62572 75.3167 5.92699C75.3069 5.33692 75.17 4.91094 74.9081 4.64253C74.6484 4.3763 74.3007 4.2459 73.8616 4.2535C73.4433 4.26002 73.1086 4.40346 72.8608 4.68274C72.612 4.96093 72.4935 5.42059 72.5044 6.05739Z" fill="white"/>
<path d="M46.5055 38.1406C46.7511 38.4383 46.5012 38.8719 46.1122 38.8208C41.7818 38.2514 44.1029 30.1698 45.6884 26.8152C45.0614 27.2119 44.4278 27.6052 43.7856 27.9943C43.4161 29.0005 43.064 30.0242 42.6989 30.9381C41.2493 34.5643 41.3721 39.0045 45.8742 40.315C46.1904 40.4074 46.4751 40.4411 46.7457 40.4563C47.3249 40.4867 47.8432 40.4248 48.4942 40.6345C49.6189 40.9975 50.0633 41.7592 51.513 41.8896C52.5551 41.982 53.4679 41.7027 54.5317 41.9907C55.0142 42.1211 55.4239 42.3623 55.8271 42.6166C56.5497 43.0752 57.2474 43.5794 58.2927 43.5794C61.5593 43.5794 63.2545 41.5278 63.9141 38.8426C63.8641 38.8458 63.8131 38.8469 63.7609 38.8469C61.2594 38.8469 59.4609 37.5896 58.2612 35.25C57.2398 33.2571 56.829 30.7501 56.466 28.5365C56.3682 27.941 56.2759 27.377 56.1759 26.8533C55.8879 25.3384 55.4402 22.938 55.425 20.5429C52.3682 22.4077 49.3374 24.4941 46.1361 26.5327C45.2483 31.4564 44.7484 36.0172 46.5055 38.1406Z" fill="white"/>
<path d="M72.8096 14.251C66.4264 14.6781 61.1191 17.1187 55.9204 20.244C55.9617 22.588 56.3768 25.2145 56.6865 26.8412C57.5222 31.2303 57.8808 38.6035 64.1357 38.6035C65.0376 38.6035 65.5799 38.1362 66.1145 37.7461C66.4145 37.5287 66.71 37.3353 67.0654 37.2625C68.6193 36.943 69.4213 37.795 71.1535 37.0332C72.125 36.6061 72.7542 35.6738 73.8854 35.4086C74.4483 35.2771 74.9253 35.4249 75.4382 35.489C75.6925 35.5195 75.9566 35.5314 76.2446 35.476C85.9975 33.6113 76.8009 20.3092 74.1962 16.4102C74.0212 16.1505 73.2475 14.9204 72.8096 14.251ZM64.4541 36.516C59.3695 38.8664 57.4244 27.9138 57.8308 21.8393C57.8504 21.547 58.2905 21.5426 58.3165 21.8338C58.8925 27.992 61.8309 35.238 64.4313 36.0748C64.6377 36.1421 64.6497 36.4258 64.4541 36.516Z" fill="white"/>
<path d="M81.6661 12.2975C50.5664 6.24466 44.3615 40.2153 3.68275 33.3834C6.16038 28.3955 6.16038 28.3955 6.16038 28.3955L2.83949 23.1968C1.91255 23.0425 0.966057 22.8676 0 22.6676L4.05331 28.4466C4.05331 28.4466 3.40782 29.9136 0.161915 34.7689C20.8099 39.0417 33.2611 33.893 43.5747 27.6316C44.217 27.2415 44.8505 26.8481 45.4775 26.4525C45.6264 26.358 45.7753 26.2645 45.9241 26.17C49.1255 24.1314 52.1562 22.0439 55.2131 20.1802C55.3782 20.0792 55.5445 19.9814 55.7097 19.8814C60.9083 16.7561 66.2157 14.3154 72.5988 13.8884C75.8654 13.6699 79.4123 13.9775 83.3722 14.9902C82.6669 13.8666 82.1073 12.9853 81.6661 12.2975Z" fill="white"/>
</svg>
